<svg width="32" height="32" viewBox="0 0 32 32" fill="none" xmlns="http://www.w3.org/2000/svg">
<path d="M-9.45242e-07 10.5215L-4.29656e-07 21.9622C-1.924e-07 27.2268 4.46136 31.4961 9.96284 31.4961L21.9182 31.4961C27.4197 31.4961 31.8811 27.2268 31.8811 21.9622L31.8811 10.5215C31.8811 5.25688 27.4197 0.987593 21.9182 0.987594L9.96284 0.987594C4.46136 0.987594 -1.1825e-06 5.25688 -9.45242e-07 10.5215ZM21.9182 3.84777C25.7639 3.84777 28.8922 6.84141 28.8922 10.5215L28.8922 21.9622C28.8922 25.6423 25.7639 28.6359 21.9182 28.6359L9.96284 28.6359C6.11718 28.6359 2.98885 25.6423 2.98885 21.9622L2.98885 10.5215C2.98885 6.84141 6.11718 3.84777 9.96284 3.84777L21.9182 3.84777Z" fill="black"/>
<path d="M7.97028 16.2425C7.97028 20.4546 11.539 23.8696 15.9405 23.8696C20.3421 23.8696 23.9108 20.4546 23.9108 16.2425C23.9108 12.0304 20.3421 8.61538 15.9405 8.61538C11.539 8.61538 7.97028 12.0304 7.97028 16.2425ZM20.922 16.2425C20.922 18.87 18.6863 21.0095 15.9405 21.0095C13.1928 21.0095 10.9591 18.87 10.9591 16.2425C10.9591 13.615 13.1928 11.4756 15.9405 11.4756C18.6863 11.4756 20.922 13.615 20.922 16.2425Z" fill="black"/>
<path d="M8.43449 8.04228C8.43449 7.48098 7.959 7.02597 7.37246 7.02597C6.78591 7.02597 6.31042 7.48098 6.31042 8.04228C6.31042 8.60357 6.78591 9.05859 7.37246 9.05859C7.959 9.05859 8.43449 8.60357 8.43449 8.04228Z" fill="black"/>
</svg>
